<svg width="14" height="14" viewBox="0 0 14 14" fill="none" xmlns="http://www.w3.org/2000/svg">
<g clip-path="url(#clip0)">
<path d="M7.4375 11.6667H12.6875C13.4108 11.6667 14 11.0775 14 10.3542V5.39585C14 4.67251 13.4108 4.08335 12.6875 4.08335H5.97917C5.25583 4.08335 4.66667 4.67251 4.66667 5.39585V7.14585C4.66667 7.38735 4.86267 7.58335 5.10417 7.58335C5.34567 7.58335 5.54167 7.38735 5.54167 7.14585V5.39585C5.54167 5.15493 5.73825 4.95835 5.97917 4.95835H12.6875C12.9284 4.95835 13.125 5.15493 13.125 5.39585V10.3542C13.125 10.5951 12.9284 10.7917 12.6875 10.7917H7.4375C7.196 10.7917 7 10.9877 7 11.2292C7 11.4707 7.196 11.6667 7.4375 11.6667Z" fill="#999999"/>
<path d="M6.85417 4.95833C7.09567 4.95833 7.29167 4.76233 7.29167 4.52083V2.91666C7.29167 1.79083 8.2075 0.874992 9.33333 0.874992C10.4592 0.874992 11.375 1.79083 11.375 2.91666V4.52083C11.375 4.76233 11.571 4.95833 11.8125 4.95833C12.054 4.95833 12.25 4.76233 12.25 4.52083V2.91666C12.25 1.30841 10.9416 -7.62939e-06 9.33333 -7.62939e-06C7.72508 -7.62939e-06 6.41667 1.30841 6.41667 2.91666V4.52083C6.41667 4.76233 6.61267 4.95833 6.85417 4.95833Z" fill="#999999"/>
<path d="M0.437531 10.5H1.60419C1.84569 10.5 2.04169 10.304 2.04169 10.0625C2.04169 9.82101 1.84569 9.62501 1.60419 9.62501H0.875028V8.89584C0.875028 8.65433 0.67903 8.45833 0.437531 8.45833C0.196033 8.45833 3.43323e-05 8.65433 3.43323e-05 8.89584V10.0625C3.43323e-05 10.304 0.196033 10.5 0.437531 10.5Z" fill="#999999"/>
<path d="M5.39581 13.7083C5.63731 13.7083 5.83331 13.5123 5.83331 13.2708V12.1042C5.83331 11.8627 5.63731 11.6667 5.39581 11.6667H4.22913C3.98763 11.6667 3.79163 11.8627 3.79163 12.1042C3.79163 12.3457 3.98763 12.5417 4.22913 12.5417H4.95831V13.2708C4.95831 13.5123 5.15431 13.7083 5.39581 13.7083Z" fill="#999999"/>
<path d="M5.285 10.7917C5.327 10.7917 5.37017 10.7853 5.41217 10.773C5.64317 10.7024 5.77383 10.458 5.70383 10.227C5.32875 8.99442 4.20875 8.16667 2.91667 8.16667C1.83751 8.16667 0.853428 8.75875 0.348263 9.71133C0.23568 9.92483 0.316763 10.1897 0.530262 10.3034C0.745512 10.4148 1.00859 10.3349 1.12234 10.1214C1.47409 9.45525 2.16243 9.04167 2.91667 9.04167C3.82084 9.04167 4.60425 9.62033 4.86617 10.4813C4.92333 10.6703 5.09717 10.7917 5.285 10.7917Z" fill="#999999"/>
<path d="M2.91665 14C3.99582 14 4.9799 13.4079 5.48506 12.4553C5.59765 12.2418 5.51656 11.977 5.30306 11.8632C5.0884 11.7512 4.82473 11.8317 4.71098 12.0452C4.35923 12.7114 3.6709 13.125 2.91665 13.125C2.01774 13.125 1.23374 12.5457 0.96599 11.6824C0.89424 11.452 0.649824 11.3225 0.418825 11.3948C0.187825 11.466 0.0594921 11.7116 0.131242 11.942C0.512741 13.1728 1.63216 14 2.91665 14Z" fill="#999999"/>
</g>
<defs>
<clipPath id="clip0">
<rect width="14" height="14" rx="3" transform="matrix(-1 0 0 1 14 0)" fill="white"/>
</clipPath>
</defs>
</svg>
