<svg width="15" height="15" viewBox="0 0 15 15" fill="none" xmlns="http://www.w3.org/2000/svg">
<g clip-path="url(#clip0)">
<path d="M8.59375 4.375H8.125V3.125C8.125 1.40188 6.72312 0 5 0C3.27688 0 1.875 1.40188 1.875 3.125V4.375H1.40625C0.63125 4.375 0 5.00562 0 5.78125L0 11.0938C0 11.8694 0.63125 12.5 1.40625 12.5H8.59375C9.36875 12.5 10 11.8694 10 11.0938V5.78125C10 5.00562 9.36875 4.375 8.59375 4.375ZM3.125 3.125C3.125 2.09125 3.96625 1.25 5 1.25C6.03375 1.25 6.875 2.09125 6.875 3.125V4.375H3.125V3.125Z" fill="#999999"/>
<path d="M12.5 11.875C11.8106 11.875 11.25 11.3144 11.25 10.625C11.25 9.93562 11.8106 9.375 12.5 9.375C13.1894 9.375 13.75 9.93562 13.75 10.625C13.75 11.3144 13.1894 11.875 12.5 11.875Z" fill="#999999"/>
<path d="M14.5312 15H10.4688C10.21 15 10 14.79 10 14.5313V14.2188C10 13.2706 10.7706 12.5 11.7188 12.5H13.2812C14.2294 12.5 15 13.2706 15 14.2188V14.5313C15 14.79 14.79 15 14.5312 15Z" fill="#999999"/>
</g>
<defs>
<clipPath id="clip0">
<rect width="15" height="15" rx="3" fill="white"/>
</clipPath>
</defs>
</svg>
