<svg width="15" height="15" viewBox="0 0 15 15" fill="none" xmlns="http://www.w3.org/2000/svg">
<g clip-path="url(#clip0)">
<path d="M7.60689 7.22554C6.61423 7.22554 5.75466 6.86952 5.05234 6.16708C4.35001 5.46476 3.99399 4.60543 3.99399 3.61266C3.99399 2.62023 4.35001 1.76078 5.05245 1.05823C5.75489 0.356024 6.61434 0 7.60689 0C8.59966 0 9.459 0.356024 10.1613 1.05835C10.8636 1.76067 11.2198 2.62011 11.2198 3.61266C11.2198 4.60543 10.8636 5.46488 10.1612 6.1672C9.45877 6.8694 8.59932 7.22554 7.60689 7.22554Z" fill="#999999"/>
<path d="M1.28529 11.5342C1.30554 11.2419 1.34651 10.9231 1.40682 10.5864C1.4677 10.2472 1.5461 9.92657 1.63994 9.63349C1.73687 9.33057 1.86871 9.03142 2.03167 8.74474C2.20081 8.4472 2.39948 8.18811 2.62241 7.9749C2.85553 7.75186 3.14095 7.57253 3.47099 7.44173C3.7999 7.31161 4.16439 7.24569 4.55429 7.24569C4.70741 7.24569 4.8555 7.30852 5.14149 7.49471C5.3175 7.6095 5.52338 7.74225 5.75317 7.88907C5.94967 8.01427 6.21586 8.13157 6.54465 8.23777C6.86543 8.34157 7.19112 8.39421 7.51259 8.39421C7.83405 8.39421 8.15964 8.34157 8.48076 8.23777C8.8092 8.13169 9.07539 8.01439 9.27166 7.88919C9.49928 7.74373 9.70528 7.61098 9.88392 7.4946C10.1696 7.3084 10.3178 7.24557 10.4709 7.24557C10.8609 7.24557 11.2253 7.31161 11.5541 7.44184C11.8839 7.57242 12.1694 7.75175 12.4028 7.97502C12.6256 8.18834 12.8244 8.44731 12.9933 8.74474C13.1561 9.03142 13.288 9.33045 13.385 9.6336C13.4787 9.92669 13.5571 10.2472 13.618 10.5864C13.6783 10.9227 13.7193 11.2416 13.7395 11.5346C13.7595 11.8216 13.7695 12.1195 13.7695 12.4203C13.7695 13.2033 13.5206 13.8372 13.0298 14.3047C12.545 14.766 11.9036 15.0001 11.1235 15.0001H3.90095C3.12092 15.0001 2.47971 14.7661 1.99482 14.3047C1.50387 13.8376 1.25496 13.2036 1.25496 12.4202C1.25507 12.118 1.26526 11.8199 1.28529 11.5342Z" fill="#999999"/>
</g>
<defs>
<clipPath id="clip0">
<rect width="15" height="15" rx="3" transform="matrix(-1 0 0 1 15 0)" fill="white"/>
</clipPath>
</defs>
</svg>
